<mxfile host="app.diagrams.net" modified="2021-11-11T12:59:20.860Z" agent="5.0 (Windows NT 10.0; Win64; x64) AppleWebKit/537.36 (KHTML, like Gecko) Chrome/95.0.4638.69 Safari/537.36" etag="E0grRfWFYPD_YOhGCMYU" version="15.7.0" type="github" pages="6">
  <diagram id="K_swEukJsjAwK3omEHu7" name="Clock - Event">
    <mxGraphModel dx="782" dy="436" grid="1" gridSize="10" guides="1" tooltips="1" connect="1" arrows="1" fold="1" page="1" pageScale="1" pageWidth="827" pageHeight="1169" math="0" shadow="0">
      <root>
        <mxCell id="0" />
        <mxCell id="1" parent="0" />
        <mxCell id="Hj72ASE7NcC1V6fNZzQE-5" value="&lt;p style=&quot;margin: 0px ; margin-top: 4px ; text-align: center&quot;&gt;&lt;b&gt;&lt;i&gt;Subject&lt;/i&gt;&lt;/b&gt;&lt;/p&gt;&lt;hr size=&quot;1&quot;&gt;&lt;p style=&quot;margin: 0px ; margin-left: 4px&quot;&gt;&lt;/p&gt;&lt;p style=&quot;margin: 0px ; margin-left: 4px&quot;&gt;&lt;i&gt;+ attach(self, observer): None&lt;/i&gt;&lt;/p&gt;&lt;p style=&quot;margin: 0px ; margin-left: 4px&quot;&gt;&lt;i&gt;+ detach(self, observer): None&lt;/i&gt;&lt;i&gt;&lt;br&gt;&lt;/i&gt;&lt;/p&gt;&lt;p style=&quot;margin: 0px ; margin-left: 4px&quot;&gt;&lt;i&gt;+ notify(self): None&lt;/i&gt;&lt;i&gt;&lt;br&gt;&lt;/i&gt;&lt;/p&gt;" style="verticalAlign=top;align=left;overflow=fill;fontSize=12;fontFamily=Helvetica;html=1;" parent="1" vertex="1">
          <mxGeometry x="224" y="120" width="170" height="80" as="geometry" />
        </mxCell>
        <mxCell id="Hj72ASE7NcC1V6fNZzQE-6" value="&lt;p style=&quot;margin: 0px ; margin-top: 4px ; text-align: center&quot;&gt;&lt;b&gt;&lt;i&gt;Object&lt;/i&gt;&lt;/b&gt;&lt;/p&gt;&lt;hr size=&quot;1&quot;&gt;&lt;p style=&quot;margin: 0px ; margin-left: 4px&quot;&gt;&lt;/p&gt;&lt;p style=&quot;margin: 0px ; margin-left: 4px&quot;&gt;&lt;i&gt;+ attach(self, observer): None&lt;/i&gt;&lt;/p&gt;&lt;p style=&quot;margin: 0px ; margin-left: 4px&quot;&gt;&lt;i&gt;+ detach(self, observer): None&lt;/i&gt;&lt;i&gt;&lt;br&gt;&lt;/i&gt;&lt;/p&gt;&lt;p style=&quot;margin: 0px ; margin-left: 4px&quot;&gt;&lt;i&gt;+ notify(self): None&lt;/i&gt;&lt;i&gt;&lt;br&gt;&lt;/i&gt;&lt;/p&gt;" style="verticalAlign=top;align=left;overflow=fill;fontSize=12;fontFamily=Helvetica;html=1;" parent="1" vertex="1">
          <mxGeometry x="457" y="120" width="170" height="80" as="geometry" />
        </mxCell>
        <mxCell id="Hj72ASE7NcC1V6fNZzQE-7" value="&lt;p style=&quot;margin: 0px ; margin-top: 4px ; text-align: center&quot;&gt;&lt;b&gt;SingletonMeta&lt;/b&gt;&lt;/p&gt;&lt;hr size=&quot;1&quot;&gt;&lt;p style=&quot;margin: 0px ; margin-left: 4px&quot;&gt;+ _instances: Dictionary&lt;/p&gt;&lt;p style=&quot;margin: 0px ; margin-left: 4px&quot;&gt;+ _lock: Lock&lt;/p&gt;&lt;hr size=&quot;1&quot;&gt;&lt;p style=&quot;margin: 0px ; margin-left: 4px&quot;&gt;+ __call__(cls, *args, **kwargs): None&lt;/p&gt;" style="verticalAlign=top;align=left;overflow=fill;fontSize=12;fontFamily=Helvetica;html=1;" parent="1" vertex="1">
          <mxGeometry x="310" y="255" width="210" height="90" as="geometry" />
        </mxCell>
        <mxCell id="Hj72ASE7NcC1V6fNZzQE-8" value="Extends" style="endArrow=block;endSize=16;endFill=0;html=1;exitX=0.5;exitY=0;exitDx=0;exitDy=0;entryX=0.5;entryY=1;entryDx=0;entryDy=0;" parent="1" source="Hj72ASE7NcC1V6fNZzQE-7" target="Hj72ASE7NcC1V6fNZzQE-6" edge="1">
          <mxGeometry x="-0.2903" width="160" relative="1" as="geometry">
            <mxPoint x="520" y="225" as="sourcePoint" />
            <mxPoint x="680" y="225" as="targetPoint" />
            <Array as="points">
              <mxPoint x="415" y="235" />
              <mxPoint x="539" y="235" />
            </Array>
            <mxPoint as="offset" />
          </mxGeometry>
        </mxCell>
        <mxCell id="Hj72ASE7NcC1V6fNZzQE-9" value="Extends" style="endArrow=block;endSize=16;endFill=0;html=1;exitX=0.5;exitY=0;exitDx=0;exitDy=0;entryX=0.5;entryY=1;entryDx=0;entryDy=0;" parent="1" source="Hj72ASE7NcC1V6fNZzQE-7" target="Hj72ASE7NcC1V6fNZzQE-5" edge="1">
          <mxGeometry x="-0.2903" width="160" relative="1" as="geometry">
            <mxPoint x="425" y="265" as="sourcePoint" />
            <mxPoint x="525" y="210" as="targetPoint" />
            <Array as="points">
              <mxPoint x="415" y="235" />
              <mxPoint x="309" y="235" />
            </Array>
            <mxPoint as="offset" />
          </mxGeometry>
        </mxCell>
        <mxCell id="Hj72ASE7NcC1V6fNZzQE-10" value="&lt;p style=&quot;margin: 0px ; margin-top: 4px ; text-align: center&quot;&gt;&lt;b&gt;Clock&lt;/b&gt;&lt;/p&gt;&lt;hr size=&quot;1&quot;&gt;&lt;p style=&quot;margin: 0px ; margin-left: 4px&quot;&gt;+ value: int&lt;/p&gt;&lt;p style=&quot;margin: 0px ; margin-left: 4px&quot;&gt;+ epsilon: float&lt;/p&gt;&lt;p style=&quot;margin: 0px ; margin-left: 4px&quot;&gt;+ observers: list&lt;/p&gt;&lt;p style=&quot;margin: 0px ; margin-left: 4px&quot;&gt;+ Done: boolean&lt;/p&gt;&lt;hr size=&quot;1&quot;&gt;&lt;p style=&quot;margin: 0px ; margin-left: 4px&quot;&gt;+ __init__(self): None&lt;/p&gt;&lt;p style=&quot;margin: 0px ; margin-left: 4px&quot;&gt;+ sleep_epsilon(self): None&lt;/p&gt;&lt;p style=&quot;margin: 0px ; margin-left: 4px&quot;&gt;+ run_clock(self): None&lt;/p&gt;" style="verticalAlign=top;align=left;overflow=fill;fontSize=12;fontFamily=Helvetica;html=1;" parent="1" vertex="1">
          <mxGeometry x="479" y="393" width="159" height="150" as="geometry" />
        </mxCell>
        <mxCell id="Hj72ASE7NcC1V6fNZzQE-11" value="&lt;p style=&quot;margin: 0px ; margin-top: 4px ; text-align: center&quot;&gt;&lt;b&gt;Events&lt;/b&gt;&lt;/p&gt;&lt;hr size=&quot;1&quot;&gt;&lt;p style=&quot;margin: 0px ; margin-left: 4px&quot;&gt;+ events: list&lt;/p&gt;&lt;p style=&quot;margin: 0px ; margin-left: 4px&quot;&gt;+ observers: list&lt;/p&gt;&lt;hr size=&quot;1&quot;&gt;&lt;p style=&quot;margin: 0px ; margin-left: 4px&quot;&gt;+ __init__(self): None&lt;/p&gt;&lt;p style=&quot;margin: 0px ; margin-left: 4px&quot;&gt;+ set_event(self): None&lt;/p&gt;&lt;p style=&quot;margin: 0px ; margin-left: 4px&quot;&gt;+ get_event_val(self): boolean or Node&lt;/p&gt;&lt;p style=&quot;margin: 0px ; margin-left: 4px&quot;&gt;+ IntgerToEvent(arg): string &amp;lt;&amp;lt;static&amp;gt;&amp;gt;&lt;/p&gt;&amp;nbsp;+ Event&lt;span&gt;ToIntger&lt;/span&gt;&lt;span&gt;(arg): int &amp;lt;&amp;lt;static&amp;gt;&amp;gt;&lt;/span&gt;" style="verticalAlign=top;align=left;overflow=fill;fontSize=12;fontFamily=Helvetica;html=1;" parent="1" vertex="1">
          <mxGeometry x="200" y="393" width="220" height="150" as="geometry" />
        </mxCell>
        <mxCell id="Hj72ASE7NcC1V6fNZzQE-12" value="Extends" style="endArrow=block;endSize=16;endFill=0;html=1;exitX=0.5;exitY=0;exitDx=0;exitDy=0;entryX=0.5;entryY=1;entryDx=0;entryDy=0;" parent="1" source="Hj72ASE7NcC1V6fNZzQE-11" target="Hj72ASE7NcC1V6fNZzQE-7" edge="1">
          <mxGeometry x="-0.2903" width="160" relative="1" as="geometry">
            <mxPoint x="425" y="265" as="sourcePoint" />
            <mxPoint x="319" y="210" as="targetPoint" />
            <Array as="points">
              <mxPoint x="310" y="375" />
              <mxPoint x="415" y="375" />
            </Array>
            <mxPoint as="offset" />
          </mxGeometry>
        </mxCell>
        <mxCell id="Hj72ASE7NcC1V6fNZzQE-13" value="Extends" style="endArrow=block;endSize=16;endFill=0;html=1;exitX=0.5;exitY=0;exitDx=0;exitDy=0;" parent="1" source="Hj72ASE7NcC1V6fNZzQE-10" edge="1">
          <mxGeometry x="-0.2903" width="160" relative="1" as="geometry">
            <mxPoint x="315" y="403" as="sourcePoint" />
            <mxPoint x="415" y="345" as="targetPoint" />
            <Array as="points">
              <mxPoint x="559" y="375" />
              <mxPoint x="415" y="375" />
            </Array>
            <mxPoint as="offset" />
          </mxGeometry>
        </mxCell>
        <mxCell id="Hj72ASE7NcC1V6fNZzQE-14" value="" style="endArrow=open;endFill=1;endSize=12;html=1;exitX=1;exitY=0.5;exitDx=0;exitDy=0;entryX=0;entryY=0.5;entryDx=0;entryDy=0;" parent="1" source="Hj72ASE7NcC1V6fNZzQE-5" target="Hj72ASE7NcC1V6fNZzQE-6" edge="1">
          <mxGeometry width="160" relative="1" as="geometry">
            <mxPoint x="520" y="205" as="sourcePoint" />
            <mxPoint x="440" y="160" as="targetPoint" />
          </mxGeometry>
        </mxCell>
        <mxCell id="Hj72ASE7NcC1V6fNZzQE-15" value="*" style="text;html=1;align=center;verticalAlign=middle;resizable=0;points=[];autosize=1;strokeColor=none;" parent="1" vertex="1">
          <mxGeometry x="430" y="165" width="20" height="20" as="geometry" />
        </mxCell>
        <mxCell id="Hj72ASE7NcC1V6fNZzQE-17" value="" style="endArrow=open;endFill=1;endSize=12;html=1;exitX=0;exitY=0.5;exitDx=0;exitDy=0;entryX=1;entryY=0.5;entryDx=0;entryDy=0;" parent="1" source="Hj72ASE7NcC1V6fNZzQE-10" target="Hj72ASE7NcC1V6fNZzQE-11" edge="1">
          <mxGeometry width="160" relative="1" as="geometry">
            <mxPoint x="404" y="170" as="sourcePoint" />
            <mxPoint x="467" y="170" as="targetPoint" />
          </mxGeometry>
        </mxCell>
      </root>
    </mxGraphModel>
  </diagram>
  <diagram id="lHy47dMtSAU8z_r7q4y6" name="Clock-sim-cont-state">
    <mxGraphModel dx="1422" dy="762" grid="1" gridSize="10" guides="1" tooltips="1" connect="1" arrows="1" fold="1" page="1" pageScale="1" pageWidth="827" pageHeight="1169" math="0" shadow="0">
      <root>
        <mxCell id="OsJ-OFn6tzz7dRw8oj8K-0" />
        <mxCell id="OsJ-OFn6tzz7dRw8oj8K-1" parent="OsJ-OFn6tzz7dRw8oj8K-0" />
        <mxCell id="OsJ-OFn6tzz7dRw8oj8K-2" value="&lt;p style=&quot;margin: 0px ; margin-top: 4px ; text-align: center&quot;&gt;&lt;b&gt;&lt;i&gt;Subject&lt;/i&gt;&lt;/b&gt;&lt;/p&gt;&lt;hr size=&quot;1&quot;&gt;&lt;p style=&quot;margin: 0px ; margin-left: 4px&quot;&gt;&lt;/p&gt;&lt;p style=&quot;margin: 0px ; margin-left: 4px&quot;&gt;&lt;i&gt;+ attach(self, observer): None&lt;/i&gt;&lt;/p&gt;&lt;p style=&quot;margin: 0px ; margin-left: 4px&quot;&gt;&lt;i&gt;+ detach(self, observer): None&lt;/i&gt;&lt;i&gt;&lt;br&gt;&lt;/i&gt;&lt;/p&gt;&lt;p style=&quot;margin: 0px ; margin-left: 4px&quot;&gt;&lt;i&gt;+ notify(self): None&lt;/i&gt;&lt;i&gt;&lt;br&gt;&lt;/i&gt;&lt;/p&gt;" style="verticalAlign=top;align=left;overflow=fill;fontSize=12;fontFamily=Helvetica;html=1;" parent="OsJ-OFn6tzz7dRw8oj8K-1" vertex="1">
          <mxGeometry x="40" y="40" width="170" height="80" as="geometry" />
        </mxCell>
        <mxCell id="OsJ-OFn6tzz7dRw8oj8K-3" value="&lt;p style=&quot;margin: 0px ; margin-top: 4px ; text-align: center&quot;&gt;&lt;b&gt;&lt;i&gt;Object&lt;/i&gt;&lt;/b&gt;&lt;/p&gt;&lt;hr size=&quot;1&quot;&gt;&lt;p style=&quot;margin: 0px ; margin-left: 4px&quot;&gt;&lt;/p&gt;&lt;p style=&quot;margin: 0px ; margin-left: 4px&quot;&gt;&lt;i&gt;+ attach(self, observer): None&lt;/i&gt;&lt;/p&gt;&lt;p style=&quot;margin: 0px ; margin-left: 4px&quot;&gt;&lt;i&gt;+ detach(self, observer): None&lt;/i&gt;&lt;i&gt;&lt;br&gt;&lt;/i&gt;&lt;/p&gt;&lt;p style=&quot;margin: 0px ; margin-left: 4px&quot;&gt;&lt;i&gt;+ notify(self): None&lt;/i&gt;&lt;i&gt;&lt;br&gt;&lt;/i&gt;&lt;/p&gt;" style="verticalAlign=top;align=left;overflow=fill;fontSize=12;fontFamily=Helvetica;html=1;" parent="OsJ-OFn6tzz7dRw8oj8K-1" vertex="1">
          <mxGeometry x="455" y="40" width="170" height="80" as="geometry" />
        </mxCell>
        <mxCell id="OsJ-OFn6tzz7dRw8oj8K-4" value="&lt;p style=&quot;margin: 0px ; margin-top: 4px ; text-align: center&quot;&gt;&lt;b&gt;SingletonMeta&lt;/b&gt;&lt;/p&gt;&lt;hr size=&quot;1&quot;&gt;&lt;p style=&quot;margin: 0px ; margin-left: 4px&quot;&gt;+ _instances: Dictionary&lt;/p&gt;&lt;p style=&quot;margin: 0px ; margin-left: 4px&quot;&gt;+ _lock: Lock&lt;/p&gt;&lt;hr size=&quot;1&quot;&gt;&lt;p style=&quot;margin: 0px ; margin-left: 4px&quot;&gt;+ __call__(cls, *args, **kwargs): None&lt;/p&gt;" style="verticalAlign=top;align=left;overflow=fill;fontSize=12;fontFamily=Helvetica;html=1;" parent="OsJ-OFn6tzz7dRw8oj8K-1" vertex="1">
          <mxGeometry x="40" y="180" width="210" height="90" as="geometry" />
        </mxCell>
        <mxCell id="OsJ-OFn6tzz7dRw8oj8K-5" value="Extends" style="endArrow=block;endSize=16;endFill=0;html=1;exitX=0.5;exitY=0;exitDx=0;exitDy=0;entryX=0;entryY=1;entryDx=0;entryDy=0;" parent="OsJ-OFn6tzz7dRw8oj8K-1" source="OsJ-OFn6tzz7dRw8oj8K-4" target="OsJ-OFn6tzz7dRw8oj8K-3" edge="1">
          <mxGeometry x="-0.2903" width="160" relative="1" as="geometry">
            <mxPoint x="336" y="145" as="sourcePoint" />
            <mxPoint x="496" y="145" as="targetPoint" />
            <Array as="points">
              <mxPoint x="145" y="155" />
              <mxPoint x="455" y="155" />
            </Array>
            <mxPoint as="offset" />
          </mxGeometry>
        </mxCell>
        <mxCell id="OsJ-OFn6tzz7dRw8oj8K-6" value="Extends" style="endArrow=block;endSize=16;endFill=0;html=1;exitX=0.5;exitY=0;exitDx=0;exitDy=0;entryX=0.5;entryY=1;entryDx=0;entryDy=0;" parent="OsJ-OFn6tzz7dRw8oj8K-1" source="OsJ-OFn6tzz7dRw8oj8K-4" target="OsJ-OFn6tzz7dRw8oj8K-2" edge="1">
          <mxGeometry x="-0.2903" width="160" relative="1" as="geometry">
            <mxPoint x="241" y="185" as="sourcePoint" />
            <mxPoint x="341" y="130" as="targetPoint" />
            <Array as="points">
              <mxPoint x="145" y="155" />
              <mxPoint x="125" y="155" />
            </Array>
            <mxPoint as="offset" />
          </mxGeometry>
        </mxCell>
        <mxCell id="OsJ-OFn6tzz7dRw8oj8K-7" value="&lt;p style=&quot;margin: 0px ; margin-top: 4px ; text-align: center&quot;&gt;&lt;b&gt;Clock&lt;/b&gt;&lt;/p&gt;&lt;hr size=&quot;1&quot;&gt;&lt;p style=&quot;margin: 0px ; margin-left: 4px&quot;&gt;+ value: int&lt;/p&gt;&lt;p style=&quot;margin: 0px ; margin-left: 4px&quot;&gt;+ epsilon: float&lt;/p&gt;&lt;p style=&quot;margin: 0px ; margin-left: 4px&quot;&gt;+ observers: list&lt;/p&gt;&lt;p style=&quot;margin: 0px ; margin-left: 4px&quot;&gt;+ Done: boolean&lt;/p&gt;&lt;hr size=&quot;1&quot;&gt;&lt;p style=&quot;margin: 0px ; margin-left: 4px&quot;&gt;+ __init__(self): None&lt;/p&gt;&lt;p style=&quot;margin: 0px ; margin-left: 4px&quot;&gt;+ sleep_epsilon(self): None&lt;/p&gt;&lt;p style=&quot;margin: 0px ; margin-left: 4px&quot;&gt;+ run_clock(self): None&lt;/p&gt;" style="verticalAlign=top;align=left;overflow=fill;fontSize=12;fontFamily=Helvetica;html=1;" parent="OsJ-OFn6tzz7dRw8oj8K-1" vertex="1">
          <mxGeometry x="65.5" y="350" width="159" height="150" as="geometry" />
        </mxCell>
        <mxCell id="OsJ-OFn6tzz7dRw8oj8K-9" value="Extends" style="endArrow=block;endSize=16;endFill=0;html=1;exitX=0.5;exitY=0;exitDx=0;exitDy=0;" parent="OsJ-OFn6tzz7dRw8oj8K-1" source="OsJ-OFn6tzz7dRw8oj8K-7" edge="1">
          <mxGeometry x="-0.2903" width="160" relative="1" as="geometry">
            <mxPoint x="45" y="328" as="sourcePoint" />
            <mxPoint x="145" y="270" as="targetPoint" />
            <Array as="points">
              <mxPoint x="145" y="300" />
            </Array>
            <mxPoint as="offset" />
          </mxGeometry>
        </mxCell>
        <mxCell id="OsJ-OFn6tzz7dRw8oj8K-10" value="" style="endArrow=open;endFill=1;endSize=12;html=1;exitX=1;exitY=0.5;exitDx=0;exitDy=0;entryX=0;entryY=0.5;entryDx=0;entryDy=0;" parent="OsJ-OFn6tzz7dRw8oj8K-1" source="OsJ-OFn6tzz7dRw8oj8K-2" target="OsJ-OFn6tzz7dRw8oj8K-3" edge="1">
          <mxGeometry width="160" relative="1" as="geometry">
            <mxPoint x="336" y="125" as="sourcePoint" />
            <mxPoint x="256" y="80" as="targetPoint" />
          </mxGeometry>
        </mxCell>
        <mxCell id="OsJ-OFn6tzz7dRw8oj8K-11" value="*" style="text;html=1;align=center;verticalAlign=middle;resizable=0;points=[];autosize=1;strokeColor=none;" parent="OsJ-OFn6tzz7dRw8oj8K-1" vertex="1">
          <mxGeometry x="414" y="85" width="20" height="20" as="geometry" />
        </mxCell>
        <mxCell id="OsJ-OFn6tzz7dRw8oj8K-13" value="&lt;p style=&quot;margin: 0px ; margin-top: 4px ; text-align: center&quot;&gt;&lt;b&gt;Controller&lt;/b&gt;&lt;/p&gt;&lt;hr size=&quot;1&quot;&gt;&lt;p style=&quot;margin: 0px ; margin-left: 4px&quot;&gt;+ stn_graph: Graph&lt;/p&gt;&lt;p style=&quot;margin: 0px ; margin-left: 4px&quot;&gt;+ config: config_file&lt;/p&gt;&lt;p style=&quot;margin: 0px ; margin-left: 4px&quot;&gt;+ heap: list&lt;/p&gt;&lt;p style=&quot;margin: 0px ; margin-left: 4px&quot;&gt;+ curr_node: hy_Node&lt;/p&gt;&lt;p style=&quot;margin: 0px ; margin-left: 4px&quot;&gt;+ observers: list&lt;br&gt;&lt;/p&gt;&lt;p style=&quot;margin: 0px ; margin-left: 4px&quot;&gt;&lt;br&gt;&lt;/p&gt;&lt;hr size=&quot;1&quot;&gt;&lt;p style=&quot;margin: 0px 0px 0px 4px&quot;&gt;+ __init__(self): None&lt;br&gt;&lt;/p&gt;&lt;p style=&quot;margin: 0px 0px 0px 4px&quot;&gt;+ SetNodeRunTime(self, skew): None&lt;/p&gt;&lt;p style=&quot;margin: 0px 0px 0px 4px&quot;&gt;+ update(self, subject): None&lt;/p&gt;" style="verticalAlign=top;align=left;overflow=fill;fontSize=12;fontFamily=Helvetica;html=1;" parent="OsJ-OFn6tzz7dRw8oj8K-1" vertex="1">
          <mxGeometry x="620" y="320" width="207" height="180" as="geometry" />
        </mxCell>
        <mxCell id="OsJ-OFn6tzz7dRw8oj8K-14" value="&lt;p style=&quot;margin: 0px ; margin-top: 4px ; text-align: center&quot;&gt;&lt;b&gt;Simulator&lt;/b&gt;&lt;/p&gt;&lt;hr size=&quot;1&quot;&gt;&lt;p style=&quot;margin: 0px ; margin-left: 4px&quot;&gt;+ field: Type&lt;/p&gt;&lt;hr size=&quot;1&quot;&gt;&lt;p style=&quot;margin: 0px 0px 0px 4px&quot;&gt;+ __init__(self): None&lt;br&gt;&lt;/p&gt;&lt;p style=&quot;margin: 0px 0px 0px 4px&quot;&gt;+ update(self, subject): None&lt;/p&gt;" style="verticalAlign=top;align=left;overflow=fill;fontSize=12;fontFamily=Helvetica;html=1;" parent="OsJ-OFn6tzz7dRw8oj8K-1" vertex="1">
          <mxGeometry x="453" y="320" width="160" height="90" as="geometry" />
        </mxCell>
        <mxCell id="OsJ-OFn6tzz7dRw8oj8K-15" value="&lt;p style=&quot;margin: 0px ; margin-top: 4px ; text-align: center&quot;&gt;&lt;b&gt;State&lt;/b&gt;&lt;/p&gt;&lt;hr size=&quot;1&quot;&gt;&lt;p style=&quot;margin: 0px ; margin-left: 4px&quot;&gt;+ heap: list&lt;/p&gt;&lt;p style=&quot;margin: 0px ; margin-left: 4px&quot;&gt;+ finished_node: hy_Node&amp;nbsp;&lt;/p&gt;&lt;hr size=&quot;1&quot;&gt;&lt;p style=&quot;margin: 0px ; margin-left: 4px&quot;&gt;+ __init__(self): None&lt;br&gt;&lt;/p&gt;&lt;p style=&quot;margin: 0px ; margin-left: 4px&quot;&gt;+ update(self, subject): None&lt;/p&gt;" style="verticalAlign=top;align=left;overflow=fill;fontSize=12;fontFamily=Helvetica;html=1;" parent="OsJ-OFn6tzz7dRw8oj8K-1" vertex="1">
          <mxGeometry x="263" y="320" width="160" height="100" as="geometry" />
        </mxCell>
        <mxCell id="gPy8BwzdPukFoB9yB9sR-0" value="Extends" style="endArrow=block;endSize=16;endFill=0;html=1;entryX=0.5;entryY=1;entryDx=0;entryDy=0;" parent="OsJ-OFn6tzz7dRw8oj8K-1" target="OsJ-OFn6tzz7dRw8oj8K-3" edge="1">
          <mxGeometry x="-0.48" width="160" relative="1" as="geometry">
            <mxPoint x="540" y="320" as="sourcePoint" />
            <mxPoint x="490" y="260" as="targetPoint" />
            <Array as="points">
              <mxPoint x="540" y="240" />
            </Array>
            <mxPoint as="offset" />
          </mxGeometry>
        </mxCell>
        <mxCell id="gPy8BwzdPukFoB9yB9sR-1" value="Extends" style="endArrow=block;endSize=16;endFill=0;html=1;entryX=0.5;entryY=1;entryDx=0;entryDy=0;exitX=0.5;exitY=0;exitDx=0;exitDy=0;" parent="OsJ-OFn6tzz7dRw8oj8K-1" source="OsJ-OFn6tzz7dRw8oj8K-13" edge="1">
          <mxGeometry width="160" relative="1" as="geometry">
            <mxPoint x="540.28" y="323.70000000000005" as="sourcePoint" />
            <mxPoint x="540" y="121" as="targetPoint" />
            <Array as="points">
              <mxPoint x="724" y="241" />
              <mxPoint x="540" y="241" />
            </Array>
          </mxGeometry>
        </mxCell>
        <mxCell id="gPy8BwzdPukFoB9yB9sR-2" value="Extends" style="endArrow=block;endSize=16;endFill=0;html=1;entryX=0.5;entryY=1;entryDx=0;entryDy=0;" parent="OsJ-OFn6tzz7dRw8oj8K-1" edge="1">
          <mxGeometry x="-0.48" width="160" relative="1" as="geometry">
            <mxPoint x="350" y="320" as="sourcePoint" />
            <mxPoint x="540" y="121" as="targetPoint" />
            <Array as="points">
              <mxPoint x="350" y="241" />
              <mxPoint x="540" y="241" />
            </Array>
            <mxPoint as="offset" />
          </mxGeometry>
        </mxCell>
        <mxCell id="gPy8BwzdPukFoB9yB9sR-6" value="" style="endArrow=open;endFill=1;endSize=12;html=1;exitX=0;exitY=1;exitDx=0;exitDy=0;entryX=1;entryY=0.75;entryDx=0;entryDy=0;" parent="OsJ-OFn6tzz7dRw8oj8K-1" source="OsJ-OFn6tzz7dRw8oj8K-14" target="OsJ-OFn6tzz7dRw8oj8K-7" edge="1">
          <mxGeometry width="160" relative="1" as="geometry">
            <mxPoint x="330" y="360" as="sourcePoint" />
            <mxPoint x="490" y="360" as="targetPoint" />
            <Array as="points">
              <mxPoint x="453" y="463" />
            </Array>
          </mxGeometry>
        </mxCell>
        <mxCell id="2-uDreZIkK2m3_WDozEx-0" value="" style="endArrow=open;endFill=1;endSize=12;html=1;exitX=0;exitY=1;exitDx=0;exitDy=0;entryX=0.984;entryY=0.46;entryDx=0;entryDy=0;entryPerimeter=0;" parent="OsJ-OFn6tzz7dRw8oj8K-1" source="OsJ-OFn6tzz7dRw8oj8K-15" target="OsJ-OFn6tzz7dRw8oj8K-7" edge="1">
          <mxGeometry width="160" relative="1" as="geometry">
            <mxPoint x="330" y="390" as="sourcePoint" />
            <mxPoint x="490" y="390" as="targetPoint" />
          </mxGeometry>
        </mxCell>
        <mxCell id="2-uDreZIkK2m3_WDozEx-1" value="" style="endArrow=open;endFill=1;endSize=12;html=1;exitX=0;exitY=1;exitDx=0;exitDy=0;entryX=1;entryY=1;entryDx=0;entryDy=0;" parent="OsJ-OFn6tzz7dRw8oj8K-1" source="OsJ-OFn6tzz7dRw8oj8K-13" target="OsJ-OFn6tzz7dRw8oj8K-7" edge="1">
          <mxGeometry width="160" relative="1" as="geometry">
            <mxPoint x="330" y="390" as="sourcePoint" />
            <mxPoint x="490" y="390" as="targetPoint" />
          </mxGeometry>
        </mxCell>
      </root>
    </mxGraphModel>
  </diagram>
  <diagram id="1qxEvWifhf78K-OteN9u" name="Controller - Interrupt">
    <mxGraphModel dx="1422" dy="762" grid="1" gridSize="10" guides="1" tooltips="1" connect="1" arrows="1" fold="1" page="1" pageScale="1" pageWidth="827" pageHeight="1169" math="0" shadow="0">
      <root>
        <mxCell id="Vr8NxhxPtWEiRM1rBVhR-0" />
        <mxCell id="Vr8NxhxPtWEiRM1rBVhR-1" parent="Vr8NxhxPtWEiRM1rBVhR-0" />
        <mxCell id="uQ0rgePmNMFStqGCxkT9-0" value="&lt;p style=&quot;margin: 0px ; margin-top: 4px ; text-align: center&quot;&gt;&lt;b&gt;Controller&lt;/b&gt;&lt;/p&gt;&lt;hr size=&quot;1&quot;&gt;&lt;p style=&quot;margin: 0px 0px 0px 4px&quot;&gt;+ stn_graph: Graph&lt;/p&gt;&lt;p style=&quot;margin: 0px 0px 0px 4px&quot;&gt;+ config: config_file&lt;/p&gt;&lt;p style=&quot;margin: 0px 0px 0px 4px&quot;&gt;+ heap: list&lt;/p&gt;&lt;p style=&quot;margin: 0px 0px 0px 4px&quot;&gt;+ curr_node: hy_Node&lt;/p&gt;&lt;p style=&quot;margin: 0px 0px 0px 4px&quot;&gt;+ observers: list&lt;/p&gt;&lt;hr size=&quot;1&quot;&gt;&lt;p style=&quot;margin: 0px 0px 0px 4px&quot;&gt;+ __init__(self): None&lt;br&gt;&lt;/p&gt;&lt;p style=&quot;margin: 0px 0px 0px 4px&quot;&gt;+ SetNodeRunTime(self, skew): None&lt;/p&gt;&lt;p style=&quot;margin: 0px 0px 0px 4px&quot;&gt;+ update(self, subject): None&lt;/p&gt;" style="verticalAlign=top;align=left;overflow=fill;fontSize=12;fontFamily=Helvetica;html=1;" parent="Vr8NxhxPtWEiRM1rBVhR-1" vertex="1">
          <mxGeometry x="45" y="390" width="215" height="160" as="geometry" />
        </mxCell>
        <mxCell id="0OtexTiT66HJJ8eRvsj0-0" value="&lt;p style=&quot;margin: 0px ; margin-top: 4px ; text-align: center&quot;&gt;&lt;b&gt;&lt;i&gt;Subject&lt;/i&gt;&lt;/b&gt;&lt;/p&gt;&lt;hr size=&quot;1&quot;&gt;&lt;p style=&quot;margin: 0px ; margin-left: 4px&quot;&gt;&lt;/p&gt;&lt;p style=&quot;margin: 0px ; margin-left: 4px&quot;&gt;&lt;i&gt;+ attach(self, observer): None&lt;/i&gt;&lt;/p&gt;&lt;p style=&quot;margin: 0px ; margin-left: 4px&quot;&gt;&lt;i&gt;+ detach(self, observer): None&lt;/i&gt;&lt;i&gt;&lt;br&gt;&lt;/i&gt;&lt;/p&gt;&lt;p style=&quot;margin: 0px ; margin-left: 4px&quot;&gt;&lt;i&gt;+ notify(self): None&lt;/i&gt;&lt;i&gt;&lt;br&gt;&lt;/i&gt;&lt;/p&gt;" style="verticalAlign=top;align=left;overflow=fill;fontSize=12;fontFamily=Helvetica;html=1;" parent="Vr8NxhxPtWEiRM1rBVhR-1" vertex="1">
          <mxGeometry x="40" y="230" width="170" height="80" as="geometry" />
        </mxCell>
        <mxCell id="pknwTx1fkkb6FOjqUyQJ-0" value="&lt;p style=&quot;margin: 0px ; margin-top: 4px ; text-align: center&quot;&gt;&lt;b&gt;&lt;i&gt;Object&lt;/i&gt;&lt;/b&gt;&lt;/p&gt;&lt;hr size=&quot;1&quot;&gt;&lt;p style=&quot;margin: 0px ; margin-left: 4px&quot;&gt;&lt;/p&gt;&lt;p style=&quot;margin: 0px ; margin-left: 4px&quot;&gt;&lt;i&gt;+ attach(self, observer): None&lt;/i&gt;&lt;/p&gt;&lt;p style=&quot;margin: 0px ; margin-left: 4px&quot;&gt;&lt;i&gt;+ detach(self, observer): None&lt;/i&gt;&lt;i&gt;&lt;br&gt;&lt;/i&gt;&lt;/p&gt;&lt;p style=&quot;margin: 0px ; margin-left: 4px&quot;&gt;&lt;i&gt;+ notify(self): None&lt;/i&gt;&lt;i&gt;&lt;br&gt;&lt;/i&gt;&lt;/p&gt;" style="verticalAlign=top;align=left;overflow=fill;fontSize=12;fontFamily=Helvetica;html=1;" parent="Vr8NxhxPtWEiRM1rBVhR-1" vertex="1">
          <mxGeometry x="400" y="230" width="170" height="80" as="geometry" />
        </mxCell>
        <mxCell id="pknwTx1fkkb6FOjqUyQJ-1" value="&lt;p style=&quot;margin: 0px ; margin-top: 4px ; text-align: center&quot;&gt;&lt;b&gt;Interrupt&lt;/b&gt;&lt;/p&gt;&lt;hr size=&quot;1&quot;&gt;&lt;p style=&quot;margin: 0px ; margin-left: 4px&quot;&gt;+ action_count: int&lt;/p&gt;&lt;p style=&quot;margin: 0px ; margin-left: 4px&quot;&gt;+ duration: float&lt;/p&gt;&lt;hr size=&quot;1&quot;&gt;&lt;p style=&quot;margin: 0px ; margin-left: 4px&quot;&gt;+ update(self, subject): None&lt;/p&gt;&lt;p style=&quot;margin: 0px ; margin-left: 4px&quot;&gt;+ shuffle(self): None&lt;/p&gt;" style="verticalAlign=top;align=left;overflow=fill;fontSize=12;fontFamily=Helvetica;html=1;" parent="Vr8NxhxPtWEiRM1rBVhR-1" vertex="1">
          <mxGeometry x="409" y="390" width="160" height="110" as="geometry" />
        </mxCell>
        <mxCell id="JIHQ7J97lS70eMPpZAgw-0" value="" style="endArrow=open;endFill=1;endSize=12;html=1;exitX=1;exitY=0.5;exitDx=0;exitDy=0;entryX=0;entryY=0.5;entryDx=0;entryDy=0;" parent="Vr8NxhxPtWEiRM1rBVhR-1" source="0OtexTiT66HJJ8eRvsj0-0" target="pknwTx1fkkb6FOjqUyQJ-0" edge="1">
          <mxGeometry width="160" relative="1" as="geometry">
            <mxPoint x="290" y="580" as="sourcePoint" />
            <mxPoint x="450" y="580" as="targetPoint" />
          </mxGeometry>
        </mxCell>
        <mxCell id="RlRpK0lSdsdL4-ZUj0x3-0" value="*" style="text;html=1;align=center;verticalAlign=middle;resizable=0;points=[];autosize=1;strokeColor=none;" parent="Vr8NxhxPtWEiRM1rBVhR-1" vertex="1">
          <mxGeometry x="364" y="280" width="20" height="20" as="geometry" />
        </mxCell>
        <mxCell id="Oond1WBT-9b7BXtX2iKc-0" value="Extends" style="endArrow=block;endSize=16;endFill=0;html=1;exitX=0.377;exitY=-0.016;exitDx=0;exitDy=0;entryX=0.5;entryY=1;entryDx=0;entryDy=0;exitPerimeter=0;" parent="Vr8NxhxPtWEiRM1rBVhR-1" source="uQ0rgePmNMFStqGCxkT9-0" target="0OtexTiT66HJJ8eRvsj0-0" edge="1">
          <mxGeometry x="-0.0375" y="6" width="160" relative="1" as="geometry">
            <mxPoint x="290" y="580" as="sourcePoint" />
            <mxPoint x="450" y="580" as="targetPoint" />
            <mxPoint as="offset" />
          </mxGeometry>
        </mxCell>
        <mxCell id="Oond1WBT-9b7BXtX2iKc-2" value="Extends" style="endArrow=block;endSize=16;endFill=0;html=1;exitX=0.5;exitY=0;exitDx=0;exitDy=0;" parent="Vr8NxhxPtWEiRM1rBVhR-1" source="pknwTx1fkkb6FOjqUyQJ-1" edge="1">
          <mxGeometry width="160" relative="1" as="geometry">
            <mxPoint x="290" y="580" as="sourcePoint" />
            <mxPoint x="490" y="310" as="targetPoint" />
          </mxGeometry>
        </mxCell>
        <mxCell id="KzKGKfliMjPW-o-aRsOP-0" value="" style="endArrow=open;endFill=1;endSize=12;html=1;entryX=1;entryY=0.313;entryDx=0;entryDy=0;entryPerimeter=0;" parent="Vr8NxhxPtWEiRM1rBVhR-1" target="uQ0rgePmNMFStqGCxkT9-0" edge="1">
          <mxGeometry width="160" relative="1" as="geometry">
            <mxPoint x="409" y="440" as="sourcePoint" />
            <mxPoint x="280" y="440" as="targetPoint" />
          </mxGeometry>
        </mxCell>
        <mxCell id="jjleBKYByR4aCGLG3twX-0" value="&lt;p style=&quot;margin: 0px ; margin-top: 4px ; text-align: center&quot;&gt;&lt;b&gt;Clock&lt;/b&gt;&lt;/p&gt;&lt;hr size=&quot;1&quot;&gt;&lt;p style=&quot;margin: 0px ; margin-left: 4px&quot;&gt;+ value: int&lt;/p&gt;&lt;p style=&quot;margin: 0px ; margin-left: 4px&quot;&gt;+ epsilon: float&lt;/p&gt;&lt;p style=&quot;margin: 0px ; margin-left: 4px&quot;&gt;+ observers: list&lt;/p&gt;&lt;p style=&quot;margin: 0px ; margin-left: 4px&quot;&gt;+ Done: boolean&lt;/p&gt;&lt;hr size=&quot;1&quot;&gt;&lt;p style=&quot;margin: 0px ; margin-left: 4px&quot;&gt;+ __init__(self): None&lt;/p&gt;&lt;p style=&quot;margin: 0px ; margin-left: 4px&quot;&gt;+ sleep_epsilon(self): None&lt;/p&gt;&lt;p style=&quot;margin: 0px ; margin-left: 4px&quot;&gt;+ run_clock(self): None&lt;/p&gt;" style="verticalAlign=top;align=left;overflow=fill;fontSize=12;fontFamily=Helvetica;html=1;" parent="Vr8NxhxPtWEiRM1rBVhR-1" vertex="1">
          <mxGeometry x="659" y="20" width="159" height="150" as="geometry" />
        </mxCell>
        <mxCell id="jjleBKYByR4aCGLG3twX-1" value="&lt;p style=&quot;margin: 0px ; margin-top: 4px ; text-align: center&quot;&gt;&lt;b&gt;Events&lt;/b&gt;&lt;/p&gt;&lt;hr size=&quot;1&quot;&gt;&lt;p style=&quot;margin: 0px ; margin-left: 4px&quot;&gt;+ events: list&lt;/p&gt;&lt;p style=&quot;margin: 0px ; margin-left: 4px&quot;&gt;+ observers: list&lt;/p&gt;&lt;hr size=&quot;1&quot;&gt;&lt;p style=&quot;margin: 0px ; margin-left: 4px&quot;&gt;+ __init__(self): None&lt;/p&gt;&lt;p style=&quot;margin: 0px ; margin-left: 4px&quot;&gt;+ set_event(self): None&lt;/p&gt;&lt;p style=&quot;margin: 0px ; margin-left: 4px&quot;&gt;+ get_event_val(self): boolean or Node&lt;/p&gt;&lt;p style=&quot;margin: 0px ; margin-left: 4px&quot;&gt;+ IntgerToEvent(arg): string &amp;lt;&amp;lt;static&amp;gt;&amp;gt;&lt;/p&gt;&amp;nbsp;+ Event&lt;span&gt;ToIntger&lt;/span&gt;&lt;span&gt;(arg): int &amp;lt;&amp;lt;static&amp;gt;&amp;gt;&lt;/span&gt;" style="verticalAlign=top;align=left;overflow=fill;fontSize=12;fontFamily=Helvetica;html=1;" parent="Vr8NxhxPtWEiRM1rBVhR-1" vertex="1">
          <mxGeometry x="430" y="20" width="220" height="150" as="geometry" />
        </mxCell>
        <mxCell id="jjleBKYByR4aCGLG3twX-2" value="" style="endArrow=none;html=1;exitX=1;exitY=0.25;exitDx=0;exitDy=0;entryX=0.5;entryY=1;entryDx=0;entryDy=0;" parent="Vr8NxhxPtWEiRM1rBVhR-1" source="pknwTx1fkkb6FOjqUyQJ-1" target="jjleBKYByR4aCGLG3twX-0" edge="1">
          <mxGeometry width="50" height="50" relative="1" as="geometry">
            <mxPoint x="390" y="220" as="sourcePoint" />
            <mxPoint x="440" y="170" as="targetPoint" />
            <Array as="points">
              <mxPoint x="739" y="418" />
            </Array>
          </mxGeometry>
        </mxCell>
        <mxCell id="jjleBKYByR4aCGLG3twX-3" value="" style="endArrow=none;html=1;exitX=1;exitY=0.25;exitDx=0;exitDy=0;entryX=1;entryY=1;entryDx=0;entryDy=0;" parent="Vr8NxhxPtWEiRM1rBVhR-1" source="pknwTx1fkkb6FOjqUyQJ-1" target="jjleBKYByR4aCGLG3twX-1" edge="1">
          <mxGeometry width="50" height="50" relative="1" as="geometry">
            <mxPoint x="390" y="220" as="sourcePoint" />
            <mxPoint x="440" y="170" as="targetPoint" />
            <Array as="points">
              <mxPoint x="650" y="418" />
            </Array>
          </mxGeometry>
        </mxCell>
      </root>
    </mxGraphModel>
  </diagram>
  <diagram id="EWde5QIop4u6hwX_6LHi" name="Page-4">
    <mxGraphModel dx="1611" dy="1023" grid="0" gridSize="10" guides="1" tooltips="1" connect="1" arrows="1" fold="1" page="0" pageScale="1" pageWidth="827" pageHeight="1169" background="#ffffff" math="0" shadow="0">
      <root>
        <mxCell id="yqTPPFB1YynZvbU2olww-0" />
        <mxCell id="yqTPPFB1YynZvbU2olww-1" parent="yqTPPFB1YynZvbU2olww-0" />
        <mxCell id="yqTPPFB1YynZvbU2olww-28" style="edgeStyle=orthogonalEdgeStyle;rounded=0;orthogonalLoop=1;jettySize=auto;html=1;exitX=1;exitY=0.5;exitDx=0;exitDy=0;entryX=0;entryY=0.5;entryDx=0;entryDy=0;fontSize=14;" parent="yqTPPFB1YynZvbU2olww-1" source="yqTPPFB1YynZvbU2olww-2" target="yqTPPFB1YynZvbU2olww-12" edge="1">
          <mxGeometry relative="1" as="geometry" />
        </mxCell>
        <mxCell id="yqTPPFB1YynZvbU2olww-2" value="&lt;h2&gt;&lt;font data-font-src=&quot;https://fonts.googleapis.com/css?family=calibi&quot; face=&quot;Times New Roman&quot;&gt;&lt;b&gt;Offline&lt;br&gt;&lt;/b&gt;&lt;b&gt;Planner&lt;/b&gt;&lt;/font&gt;&lt;/h2&gt;" style="rounded=1;whiteSpace=wrap;html=1;fillColor=#647687;strokeColor=#314354;fontColor=#ffffff;" parent="yqTPPFB1YynZvbU2olww-1" vertex="1">
          <mxGeometry x="100" y="200" width="150" height="100" as="geometry" />
        </mxCell>
        <mxCell id="yqTPPFB1YynZvbU2olww-25" style="edgeStyle=orthogonalEdgeStyle;rounded=0;orthogonalLoop=1;jettySize=auto;html=1;exitX=1;exitY=0.75;exitDx=0;exitDy=0;entryX=0;entryY=0.75;entryDx=0;entryDy=0;" parent="yqTPPFB1YynZvbU2olww-1" source="yqTPPFB1YynZvbU2olww-3" target="yqTPPFB1YynZvbU2olww-4" edge="1">
          <mxGeometry relative="1" as="geometry" />
        </mxCell>
        <mxCell id="yqTPPFB1YynZvbU2olww-3" value="&lt;font style=&quot;font-size: 18px&quot; face=&quot;Times New Roman&quot;&gt;Controller&lt;/font&gt;" style="rounded=1;whiteSpace=wrap;html=1;fillColor=#dae8fc;strokeColor=#6c8ebf;fontStyle=1" parent="yqTPPFB1YynZvbU2olww-1" vertex="1">
          <mxGeometry x="527.5" y="150" width="132.5" height="85" as="geometry" />
        </mxCell>
        <mxCell id="yqTPPFB1YynZvbU2olww-26" style="edgeStyle=orthogonalEdgeStyle;rounded=0;orthogonalLoop=1;jettySize=auto;html=1;exitX=0;exitY=0.25;exitDx=0;exitDy=0;entryX=1;entryY=0.25;entryDx=0;entryDy=0;" parent="yqTPPFB1YynZvbU2olww-1" source="yqTPPFB1YynZvbU2olww-4" target="yqTPPFB1YynZvbU2olww-3" edge="1">
          <mxGeometry relative="1" as="geometry" />
        </mxCell>
        <mxCell id="yqTPPFB1YynZvbU2olww-4" value="&lt;font face=&quot;Times New Roman&quot; style=&quot;font-size: 18px&quot;&gt;Simulator&lt;/font&gt;" style="rounded=1;whiteSpace=wrap;html=1;fillColor=#f8cecc;strokeColor=#b85450;fontStyle=1" parent="yqTPPFB1YynZvbU2olww-1" vertex="1">
          <mxGeometry x="740" y="150" width="143.5" height="85" as="geometry" />
        </mxCell>
        <mxCell id="yqTPPFB1YynZvbU2olww-5" value="&lt;b&gt;&lt;font style=&quot;font-size: 16px&quot; face=&quot;Times New Roman&quot;&gt;Clock&lt;/font&gt;&lt;/b&gt;" style="rounded=1;whiteSpace=wrap;html=1;fillColor=#f8cecc;strokeColor=#b85450;" parent="yqTPPFB1YynZvbU2olww-1" vertex="1">
          <mxGeometry x="580" y="60" width="120" height="60" as="geometry" />
        </mxCell>
        <mxCell id="yqTPPFB1YynZvbU2olww-6" value="&lt;b&gt;&lt;font style=&quot;font-size: 16px&quot; face=&quot;Times New Roman&quot;&gt;Events&lt;/font&gt;&lt;/b&gt;" style="rounded=1;whiteSpace=wrap;html=1;fillColor=#f8cecc;strokeColor=#b85450;" parent="yqTPPFB1YynZvbU2olww-1" vertex="1">
          <mxGeometry x="720" y="60" width="120" height="60" as="geometry" />
        </mxCell>
        <mxCell id="yqTPPFB1YynZvbU2olww-27" style="edgeStyle=orthogonalEdgeStyle;rounded=0;orthogonalLoop=1;jettySize=auto;html=1;exitX=0.5;exitY=0;exitDx=0;exitDy=0;entryX=0.5;entryY=1;entryDx=0;entryDy=0;" parent="yqTPPFB1YynZvbU2olww-1" source="yqTPPFB1YynZvbU2olww-8" target="yqTPPFB1YynZvbU2olww-4" edge="1">
          <mxGeometry relative="1" as="geometry" />
        </mxCell>
        <mxCell id="yqTPPFB1YynZvbU2olww-8" value="&lt;font face=&quot;Times New Roman&quot; style=&quot;font-size: 16px&quot;&gt;Interrupt&lt;/font&gt;" style="rounded=1;whiteSpace=wrap;html=1;fillColor=#f8cecc;strokeColor=#b85450;fontStyle=1" parent="yqTPPFB1YynZvbU2olww-1" vertex="1">
          <mxGeometry x="751.75" y="280" width="120" height="60" as="geometry" />
        </mxCell>
        <mxCell id="pyUk82wAUdOVqyH5WZwf-2" style="edgeStyle=orthogonalEdgeStyle;rounded=0;orthogonalLoop=1;jettySize=auto;html=1;exitX=0.5;exitY=1;exitDx=0;exitDy=0;entryX=0;entryY=0.75;entryDx=0;entryDy=0;fontFamily=Times New Roman;fontSize=16;fontColor=#000000;" parent="yqTPPFB1YynZvbU2olww-1" source="yqTPPFB1YynZvbU2olww-9" target="yqTPPFB1YynZvbU2olww-2" edge="1">
          <mxGeometry relative="1" as="geometry">
            <Array as="points">
              <mxPoint x="594" y="360" />
              <mxPoint x="-72" y="360" />
              <mxPoint x="-72" y="275" />
            </Array>
          </mxGeometry>
        </mxCell>
        <mxCell id="yqTPPFB1YynZvbU2olww-9" value="&lt;font face=&quot;Times New Roman&quot; style=&quot;font-size: 16px&quot;&gt;State&lt;/font&gt;" style="rounded=1;whiteSpace=wrap;html=1;fillColor=#dae8fc;strokeColor=#6c8ebf;fontStyle=1" parent="yqTPPFB1YynZvbU2olww-1" vertex="1">
          <mxGeometry x="533.75" y="280" width="120" height="60" as="geometry" />
        </mxCell>
        <mxCell id="pyUk82wAUdOVqyH5WZwf-0" style="edgeStyle=orthogonalEdgeStyle;rounded=0;orthogonalLoop=1;jettySize=auto;html=1;exitX=1;exitY=0.25;exitDx=0;exitDy=0;entryX=0;entryY=0.5;entryDx=0;entryDy=0;fontFamily=Times New Roman;fontSize=14;fontColor=#000000;" parent="yqTPPFB1YynZvbU2olww-1" source="yqTPPFB1YynZvbU2olww-12" target="yqTPPFB1YynZvbU2olww-3" edge="1">
          <mxGeometry relative="1" as="geometry" />
        </mxCell>
        <mxCell id="pyUk82wAUdOVqyH5WZwf-3" style="edgeStyle=orthogonalEdgeStyle;rounded=0;orthogonalLoop=1;jettySize=auto;html=1;exitX=1;exitY=0.75;exitDx=0;exitDy=0;entryX=0;entryY=0.5;entryDx=0;entryDy=0;fontFamily=Times New Roman;fontSize=14;fontColor=#000000;" parent="yqTPPFB1YynZvbU2olww-1" source="yqTPPFB1YynZvbU2olww-12" target="yqTPPFB1YynZvbU2olww-9" edge="1">
          <mxGeometry relative="1" as="geometry" />
        </mxCell>
        <mxCell id="yqTPPFB1YynZvbU2olww-12" value="&lt;b style=&quot;font-size: 18px&quot;&gt;&lt;font style=&quot;font-size: 18px&quot; face=&quot;Times New Roman&quot;&gt;Program&lt;br&gt;Manager&lt;/font&gt;&lt;/b&gt;" style="rounded=1;whiteSpace=wrap;html=1;fillColor=#dae8fc;strokeColor=#6c8ebf;" parent="yqTPPFB1YynZvbU2olww-1" vertex="1">
          <mxGeometry x="315" y="215" width="129" height="70" as="geometry" />
        </mxCell>
        <mxCell id="yqTPPFB1YynZvbU2olww-14" value="&lt;b&gt;&lt;font style=&quot;font-size: 15px&quot; face=&quot;Times New Roman&quot;&gt;New config&lt;/font&gt;&lt;/b&gt;" style="text;html=1;align=center;verticalAlign=middle;resizable=0;points=[];autosize=1;strokeColor=none;fillColor=none;" parent="yqTPPFB1YynZvbU2olww-1" vertex="1">
          <mxGeometry x="10" y="200" width="90" height="20" as="geometry" />
        </mxCell>
        <mxCell id="yqTPPFB1YynZvbU2olww-15" value="" style="endArrow=classic;html=1;rounded=0;entryX=0;entryY=0.25;entryDx=0;entryDy=0;" parent="yqTPPFB1YynZvbU2olww-1" target="yqTPPFB1YynZvbU2olww-2" edge="1">
          <mxGeometry width="50" height="50" relative="1" as="geometry">
            <mxPoint x="-75" y="225" as="sourcePoint" />
            <mxPoint x="110" y="285" as="targetPoint" />
          </mxGeometry>
        </mxCell>
        <mxCell id="yqTPPFB1YynZvbU2olww-16" value="&lt;b&gt;&lt;font face=&quot;Times New Roman&quot; style=&quot;font-size: 15px&quot;&gt;Replannig&lt;/font&gt;&lt;/b&gt;" style="text;html=1;align=center;verticalAlign=middle;resizable=0;points=[];autosize=1;strokeColor=none;fillColor=none;" parent="yqTPPFB1YynZvbU2olww-1" vertex="1">
          <mxGeometry x="15" y="250" width="80" height="20" as="geometry" />
        </mxCell>
        <mxCell id="yqTPPFB1YynZvbU2olww-23" value="&lt;font face=&quot;Times New Roman&quot; style=&quot;font-size: 14px&quot;&gt;config, log&lt;/font&gt;" style="text;html=1;align=center;verticalAlign=middle;resizable=0;points=[];autosize=1;strokeColor=none;fillColor=none;" parent="yqTPPFB1YynZvbU2olww-1" vertex="1">
          <mxGeometry x="444" y="160" width="80" height="20" as="geometry" />
        </mxCell>
        <mxCell id="yqTPPFB1YynZvbU2olww-24" value="&lt;font face=&quot;Times New Roman&quot; style=&quot;font-size: 14px&quot;&gt;config&lt;/font&gt;" style="text;html=1;align=center;verticalAlign=middle;resizable=0;points=[];autosize=1;strokeColor=none;fillColor=none;" parent="yqTPPFB1YynZvbU2olww-1" vertex="1">
          <mxGeometry x="469" y="320" width="50" height="20" as="geometry" />
        </mxCell>
        <mxCell id="DgPZbaOPSYtEYqRTltKl-3" value="&lt;b&gt;&lt;font style=&quot;font-size: 26px&quot;&gt;Online Planner&lt;/font&gt;&lt;/b&gt;" style="text;html=1;align=center;verticalAlign=middle;resizable=0;points=[];autosize=1;strokeColor=none;fillColor=none;fontSize=24;fontFamily=Times New Roman;fontColor=#000000;" parent="yqTPPFB1YynZvbU2olww-1" vertex="1">
          <mxGeometry x="488" y="-21" width="180" height="34" as="geometry" />
        </mxCell>
        <mxCell id="DgPZbaOPSYtEYqRTltKl-5" value="" style="rounded=0;whiteSpace=wrap;html=1;dashed=1;fontFamily=Times New Roman;fontSize=24;fontColor=#000000;fillColor=none;strokeWidth=2;" parent="yqTPPFB1YynZvbU2olww-1" vertex="1">
          <mxGeometry x="-8" y="25" width="270" height="403" as="geometry" />
        </mxCell>
        <mxCell id="DgPZbaOPSYtEYqRTltKl-6" value="&lt;span style=&quot;color: rgba(0 , 0 , 0 , 0) ; font-family: monospace ; font-size: 0px&quot;&gt;%3CmxGraphModel%3E%3Croot%3E%3CmxCell%20id%3D%220%22%2F%3E%3CmxCell%20id%3D%221%22%20parent%3D%220%22%2F%3E%3CmxCell%20id%3D%222%22%20value%3D%22%26lt%3Bb%26gt%3B%26lt%3Bfont%20style%3D%26quot%3Bfont-size%3A%2026px%26quot%3B%26gt%3BOnline%20Planner%26lt%3B%2Ffont%26gt%3B%26lt%3B%2Fb%26gt%3B%22%20style%3D%22text%3Bhtml%3D1%3Balign%3Dcenter%3BverticalAlign%3Dmiddle%3Bresizable%3D0%3Bpoints%3D%5B%5D%3Bautosize%3D1%3BstrokeColor%3Dnone%3BfillColor%3Dnone%3BfontSize%3D24%3BfontFamily%3DTimes%20New%20Roman%3BfontColor%3D%23000000%3B%22%20vertex%3D%221%22%20parent%3D%221%22%3E%3CmxGeometry%20x%3D%22517%22%20y%3D%22-21%22%20width%3D%22180%22%20height%3D%2234%22%20as%3D%22geometry%22%2F%3E%3C%2FmxCell%3E%3C%2Froot%3E%3C%2FmxGraphModel%3E&lt;/span&gt;" style="text;html=1;align=center;verticalAlign=middle;resizable=0;points=[];autosize=1;strokeColor=none;fillColor=none;fontSize=26;fontFamily=Times New Roman;fontColor=#000000;" parent="yqTPPFB1YynZvbU2olww-1" vertex="1">
          <mxGeometry x="106" y="-35" width="10" height="44" as="geometry" />
        </mxCell>
        <mxCell id="DgPZbaOPSYtEYqRTltKl-7" value="&lt;b&gt;&lt;font style=&quot;font-size: 26px&quot;&gt;Offline Planner&lt;/font&gt;&lt;/b&gt;" style="text;html=1;align=center;verticalAlign=middle;resizable=0;points=[];autosize=1;strokeColor=none;fillColor=none;fontSize=24;fontFamily=Times New Roman;fontColor=#000000;" parent="yqTPPFB1YynZvbU2olww-1" vertex="1">
          <mxGeometry x="29" y="-21" width="183" height="34" as="geometry" />
        </mxCell>
        <mxCell id="31TTfEl135o_cXtmXyZ4-0" value="" style="rounded=0;whiteSpace=wrap;html=1;dashed=1;fontFamily=Times New Roman;fontSize=24;fontColor=#000000;fillColor=none;strokeWidth=2;" vertex="1" parent="yqTPPFB1YynZvbU2olww-1">
          <mxGeometry x="289" y="25" width="640" height="403" as="geometry" />
        </mxCell>
      </root>
    </mxGraphModel>
  </diagram>
  <diagram id="oydRe_sdtEH__8j4CyZj" name="Page-5">
    <mxGraphModel dx="1182" dy="436" grid="0" gridSize="10" guides="1" tooltips="1" connect="1" arrows="1" fold="1" page="0" pageScale="1" pageWidth="827" pageHeight="1169" math="0" shadow="0">
      <root>
        <mxCell id="G2Y4Oawpmg9nRZc8Dd3t-0" />
        <mxCell id="G2Y4Oawpmg9nRZc8Dd3t-1" parent="G2Y4Oawpmg9nRZc8Dd3t-0" />
        <mxCell id="G2Y4Oawpmg9nRZc8Dd3t-3" value="&lt;font style=&quot;font-size: 24px&quot;&gt;&lt;b&gt;Controller&lt;/b&gt;&lt;/font&gt;" style="text;html=1;align=center;verticalAlign=middle;resizable=0;points=[];autosize=1;strokeColor=none;fillColor=none;fontSize=14;fontFamily=Times New Roman;fontColor=#000000;" parent="G2Y4Oawpmg9nRZc8Dd3t-1" vertex="1">
          <mxGeometry x="-209" y="132" width="120" height="30" as="geometry" />
        </mxCell>
        <mxCell id="gprQllOwAKVVsGkgrGHz-0" style="edgeStyle=orthogonalEdgeStyle;rounded=0;orthogonalLoop=1;jettySize=auto;html=1;exitX=0.5;exitY=1;exitDx=0;exitDy=0;fontFamily=Times New Roman;fontSize=26;fontColor=#000000;" parent="G2Y4Oawpmg9nRZc8Dd3t-1" edge="1">
          <mxGeometry relative="1" as="geometry">
            <mxPoint x="300" y="410" as="sourcePoint" />
            <mxPoint x="300" y="410" as="targetPoint" />
          </mxGeometry>
        </mxCell>
        <mxCell id="gprQllOwAKVVsGkgrGHz-1" value="" style="rounded=0;whiteSpace=wrap;html=1;fontFamily=Times New Roman;fontSize=26;fontColor=#000000;strokeWidth=1;fillColor=#FFFFFF;" parent="G2Y4Oawpmg9nRZc8Dd3t-1" vertex="1">
          <mxGeometry x="-320" y="170" width="350" height="230" as="geometry" />
        </mxCell>
        <mxCell id="gprQllOwAKVVsGkgrGHz-3" value="&lt;font style=&quot;font-size: 24px&quot;&gt;STN&lt;br&gt;Graph&lt;/font&gt;" style="rounded=1;whiteSpace=wrap;html=1;fontFamily=Times New Roman;fontSize=24;fillColor=#d0cee2;strokeColor=#56517e;strokeWidth=4;" parent="G2Y4Oawpmg9nRZc8Dd3t-1" vertex="1">
          <mxGeometry x="-280" y="200" width="120" height="60" as="geometry" />
        </mxCell>
        <mxCell id="gprQllOwAKVVsGkgrGHz-4" value="Clock" style="rounded=1;whiteSpace=wrap;html=1;fontFamily=Times New Roman;fontSize=24;dashed=1;fillColor=#fad9d5;strokeColor=#ae4132;" parent="G2Y4Oawpmg9nRZc8Dd3t-1" vertex="1">
          <mxGeometry x="-280" y="310" width="120" height="60" as="geometry" />
        </mxCell>
        <mxCell id="gprQllOwAKVVsGkgrGHz-5" value="Events" style="rounded=1;whiteSpace=wrap;html=1;fontFamily=Times New Roman;fontSize=24;dashed=1;fillColor=#fad9d5;strokeColor=#ae4132;" parent="G2Y4Oawpmg9nRZc8Dd3t-1" vertex="1">
          <mxGeometry x="-130" y="310" width="120" height="60" as="geometry" />
        </mxCell>
        <mxCell id="gprQllOwAKVVsGkgrGHz-7" style="edgeStyle=orthogonalEdgeStyle;rounded=0;orthogonalLoop=1;jettySize=auto;html=1;exitX=0;exitY=0.5;exitDx=0;exitDy=0;entryX=1;entryY=0.5;entryDx=0;entryDy=0;dashed=1;fontFamily=Times New Roman;fontSize=26;fontColor=#000000;" parent="G2Y4Oawpmg9nRZc8Dd3t-1" source="gprQllOwAKVVsGkgrGHz-6" target="gprQllOwAKVVsGkgrGHz-3" edge="1">
          <mxGeometry relative="1" as="geometry" />
        </mxCell>
        <mxCell id="gprQllOwAKVVsGkgrGHz-6" value="Heap" style="rounded=1;whiteSpace=wrap;html=1;fontFamily=Times New Roman;fontSize=24;fillColor=#d0cee2;strokeColor=#56517e;" parent="G2Y4Oawpmg9nRZc8Dd3t-1" vertex="1">
          <mxGeometry x="-130" y="200" width="120" height="60" as="geometry" />
        </mxCell>
      </root>
    </mxGraphModel>
  </diagram>
  <diagram id="-qMvi7VkWI4Z_IBjpXTO" name="Page-6">
    <mxGraphModel dx="848" dy="436" grid="0" gridSize="10" guides="1" tooltips="1" connect="1" arrows="1" fold="1" page="0" pageScale="1" pageWidth="827" pageHeight="1169" math="0" shadow="0">
      <root>
        <mxCell id="N-OfJxXbsSGJUoV-JKB1-0" />
        <mxCell id="N-OfJxXbsSGJUoV-JKB1-1" parent="N-OfJxXbsSGJUoV-JKB1-0" />
        <mxCell id="N-OfJxXbsSGJUoV-JKB1-5" style="edgeStyle=orthogonalEdgeStyle;rounded=0;orthogonalLoop=1;jettySize=auto;html=1;exitX=0.75;exitY=1;exitDx=0;exitDy=0;entryX=0.75;entryY=0;entryDx=0;entryDy=0;fontFamily=Times New Roman;fontSize=24;" edge="1" parent="N-OfJxXbsSGJUoV-JKB1-1" target="N-OfJxXbsSGJUoV-JKB1-3">
          <mxGeometry relative="1" as="geometry">
            <mxPoint x="412.75" y="140" as="sourcePoint" />
          </mxGeometry>
        </mxCell>
        <mxCell id="N-OfJxXbsSGJUoV-JKB1-9" style="edgeStyle=orthogonalEdgeStyle;rounded=0;orthogonalLoop=1;jettySize=auto;html=1;exitX=0.25;exitY=0;exitDx=0;exitDy=0;fontFamily=Times New Roman;fontSize=18;" edge="1" parent="N-OfJxXbsSGJUoV-JKB1-1" source="N-OfJxXbsSGJUoV-JKB1-3">
          <mxGeometry relative="1" as="geometry">
            <mxPoint x="297" y="141.33334350585938" as="targetPoint" />
          </mxGeometry>
        </mxCell>
        <mxCell id="N-OfJxXbsSGJUoV-JKB1-10" style="edgeStyle=orthogonalEdgeStyle;rounded=0;orthogonalLoop=1;jettySize=auto;html=1;exitX=0.75;exitY=1;exitDx=0;exitDy=0;entryX=0.75;entryY=0;entryDx=0;entryDy=0;fontFamily=Times New Roman;fontSize=18;" edge="1" parent="N-OfJxXbsSGJUoV-JKB1-1" source="N-OfJxXbsSGJUoV-JKB1-3">
          <mxGeometry relative="1" as="geometry">
            <mxPoint x="412.25" y="328" as="targetPoint" />
          </mxGeometry>
        </mxCell>
        <mxCell id="N-OfJxXbsSGJUoV-JKB1-3" value="Executor" style="rounded=1;whiteSpace=wrap;html=1;fontSize=24;fontStyle=1;fontFamily=Times New Roman;fillColor=#dae8fc;strokeColor=#6c8ebf;" vertex="1" parent="N-OfJxXbsSGJUoV-JKB1-1">
          <mxGeometry x="239" y="200" width="231" height="60" as="geometry" />
        </mxCell>
        <mxCell id="N-OfJxXbsSGJUoV-JKB1-12" style="edgeStyle=orthogonalEdgeStyle;rounded=0;orthogonalLoop=1;jettySize=auto;html=1;exitX=0.25;exitY=0;exitDx=0;exitDy=0;entryX=0.25;entryY=1;entryDx=0;entryDy=0;fontFamily=Times New Roman;fontSize=18;" edge="1" parent="N-OfJxXbsSGJUoV-JKB1-1" target="N-OfJxXbsSGJUoV-JKB1-3">
          <mxGeometry relative="1" as="geometry">
            <mxPoint x="296.75" y="328" as="sourcePoint" />
          </mxGeometry>
        </mxCell>
        <mxCell id="N-OfJxXbsSGJUoV-JKB1-7" value="&lt;font style=&quot;font-size: 18px&quot;&gt;Plan&lt;/font&gt;" style="text;html=1;strokeColor=none;fillColor=none;align=center;verticalAlign=middle;whiteSpace=wrap;rounded=0;fontFamily=Times New Roman;fontSize=24;" vertex="1" parent="N-OfJxXbsSGJUoV-JKB1-1">
          <mxGeometry x="410" y="150" width="60" height="35" as="geometry" />
        </mxCell>
        <mxCell id="N-OfJxXbsSGJUoV-JKB1-8" value="Re-planning" style="text;html=1;strokeColor=none;fillColor=none;align=center;verticalAlign=middle;whiteSpace=wrap;rounded=0;fontFamily=Times New Roman;fontSize=18;" vertex="1" parent="N-OfJxXbsSGJUoV-JKB1-1">
          <mxGeometry x="193" y="155" width="106" height="30" as="geometry" />
        </mxCell>
        <mxCell id="N-OfJxXbsSGJUoV-JKB1-11" value="&lt;font style=&quot;font-size: 18px&quot;&gt;Action&lt;/font&gt;" style="text;html=1;strokeColor=none;fillColor=none;align=center;verticalAlign=middle;whiteSpace=wrap;rounded=0;fontFamily=Times New Roman;fontSize=24;" vertex="1" parent="N-OfJxXbsSGJUoV-JKB1-1">
          <mxGeometry x="410" y="277" width="60" height="35" as="geometry" />
        </mxCell>
        <mxCell id="N-OfJxXbsSGJUoV-JKB1-13" value="&lt;span style=&quot;font-size: 18px&quot;&gt;Observant&lt;/span&gt;" style="text;html=1;strokeColor=none;fillColor=none;align=center;verticalAlign=middle;whiteSpace=wrap;rounded=0;fontFamily=Times New Roman;fontSize=24;" vertex="1" parent="N-OfJxXbsSGJUoV-JKB1-1">
          <mxGeometry x="227" y="277" width="60" height="35" as="geometry" />
        </mxCell>
        <mxCell id="N-OfJxXbsSGJUoV-JKB1-14" value="Environment" style="rounded=1;whiteSpace=wrap;html=1;fontSize=24;fontStyle=1;fontFamily=Times New Roman;fillColor=#f8cecc;strokeColor=#b85450;" vertex="1" parent="N-OfJxXbsSGJUoV-JKB1-1">
          <mxGeometry x="239" y="329" width="231" height="60" as="geometry" />
        </mxCell>
        <mxCell id="N-OfJxXbsSGJUoV-JKB1-15" value="Planner" style="rounded=1;whiteSpace=wrap;html=1;fontSize=24;fontStyle=1;fontFamily=Times New Roman;fillColor=#647687;strokeColor=#314354;fontColor=#ffffff;" vertex="1" parent="N-OfJxXbsSGJUoV-JKB1-1">
          <mxGeometry x="239" y="80" width="231" height="60" as="geometry" />
        </mxCell>
      </root>
    </mxGraphModel>
  </diagram>
</mxfile>
